<?xml version="1.0" encoding="utf-8"?>
<svg viewBox="9.903 31.126 606.109 349.324" xmlns="http://www.w3.org/2000/svg">
  <g transform="matrix(0.077516, 0, 0, -0.077516, 46.938119, 255.594151)" fill="#000000" stroke="none">
    <path d="M278 2263 c43 -60 120 -165 170 -234 50 -70 98 -131 105 -138 13 -10 151 -59 712 -251 170 -58 870 -300 1039 -359 49 -17 92 -31 96 -31 4 0 12 23 18 51 17 74 67 187 122 279 31 52 44 83 37 85 -7 3 -248 75 -537 160 -1079 320 -1697 504 -1760 524 -36 12 -68 21 -73 21 -4 0 28 -48 71 -107z"/>
    <path d="M6629 2366 c-4 -5 -466 -143 -1779 -532 -305 -90 -561 -166 -568 -169 -10 -4 -5 -16 16 -47 67 -100 131 -244 147 -330 4 -21 11 -38 15 -38 4 0 33 9 66 21 32 11 194 67 359 124 165 57 419 144 565 195 146 51 276 96 290 100 216 70 559 195 572 208 9 9 87 114 173 232 87 118 162 221 167 228 8 8 6 12 -4 12 -8 0 -17 -2 -19 -4z"/>
    <path d="M3241 1955 c-414 -93 -708 -420 -750 -832 -46 -447 226 -861 655 -996 443 -140 926 65 1129 478 260 533 -14 1161 -582 1331 -74 22 -111 27 -238 30 -106 3 -169 -1 -214 -11z m385 -263 c117 -37 203 -90 294 -181 88 -88 139 -172 176 -286 25 -80 30 -257 10 -349 -55 -246 -244 -443 -494 -517 -95 -29 -270 -28 -367 0 -246 73 -422 255 -486 502 -18 71 -21 101 -16 199 10 199 75 341 219 476 93 86 200 139 363 178 46 11 242 -3 301 -22z"/>
    <path d="M3352 1511 c-23 -6 -23 -7 16 -38 46 -37 89 -117 98 -183 5 -38 -4 -96 -22 -143 -3 -8 13 -12 54 -12 193 0 252 -251 80 -341 -35 -18 -121 -18 -157 0 -70 37 -110 116 -98 192 3 19 4 34 3 34 -2 0 -23 -7 -46 -15 -99 -35 -211 -5 -283 75 -42 46 -45 48 -51 27 -11 -41 -6 -139 10 -201 24 -92 70 -170 139 -234 98 -92 200 -132 335 -132 141 0 241 41 342 141 243 239 178 633 -129 788 -82 41 -223 62 -291 42z"/>
    <path d="M809 1654 c17 -27 84 -132 150 -234 l119 -184 667 -223 c473 -157 665 -217 661 -206 -24 62 -32 244 -16 357 6 38 9 71 7 73 -2 2 -242 71 -533 154 -681 193 -1056 300 -1072 307 -8 2 0 -17 17 -44z"/>
    <path d="M5815 1625 c-137 -40 -497 -143 -799 -229 -302 -85 -551 -157 -553 -159 -2 -2 1 -35 7 -73 16 -113 8 -295 -16 -357 -4 -11 188 49 661 206 l666 222 120 185 c156 240 180 280 171 279 -4 -1 -119 -34 -257 -74z"/>
    <path d="M1514 863 l125 -188 103 -33 c57 -18 157 -50 223 -72 66 -21 235 -75 375 -121 140 -45 261 -84 268 -87 8 -3 -5 19 -27 49 -50 65 -122 210 -151 300 l-21 67 -112 30 c-205 56 -671 180 -772 207 -55 14 -108 28 -118 31 -11 4 30 -66 107 -183z"/>
    <path d="M5390 1030 c-36 -10 -220 -59 -410 -110 -190 -51 -386 -104 -437 -117 l-92 -25 -26 -81 c-32 -97 -67 -169 -129 -261 -26 -38 -45 -70 -44 -71 2 -1 172 53 378 119 206 67 424 137 483 156 l108 35 124 188 c69 103 121 187 117 186 -4 0 -36 -9 -72 -19z"/>
  </g>
  <path d="M 114.008 285.581 Q 114.008 289.991 111.628 293.561 Q 109.248 297.131 104.698 298.811 L 115.408 318.971 L 98.048 318.971 L 89.508 301.401 L 83.768 301.401 L 83.768 318.971 L 68.298 318.971 L 68.298 270.811 L 97.768 270.811 Q 102.948 270.811 106.623 272.806 Q 110.298 274.801 112.153 278.196 Q 114.008 281.591 114.008 285.581 Z M 98.258 286.211 Q 98.258 284.321 96.998 283.061 Q 95.738 281.801 93.918 281.801 L 83.768 281.801 L 83.768 290.691 L 93.918 290.691 Q 95.738 290.691 96.998 289.396 Q 98.258 288.101 98.258 286.211 Z" style="text-transform: capitalize; white-space: pre;"/>
  <path d="M 122.751 270.811 L 164.401 270.811 L 164.401 282.361 L 138.221 282.361 L 138.221 289.011 L 160.621 289.011 L 160.621 300.071 L 138.221 300.071 L 138.221 307.421 L 164.891 307.421 L 164.891 318.971 L 122.751 318.971 Z" style="text-transform: capitalize; white-space: pre;"/>
  <path d="M 196.245 269.971 Q 206.955 269.971 213.185 275.326 Q 219.415 280.681 219.415 290.621 L 204.645 290.621 Q 204.645 286.421 202.44 283.971 Q 200.235 281.521 196.175 281.521 Q 191.485 281.521 189.28 284.461 Q 187.075 287.401 187.075 292.651 L 187.075 297.131 Q 187.075 302.311 189.28 305.286 Q 191.485 308.261 196.035 308.261 Q 200.515 308.261 202.825 305.951 Q 205.135 303.641 205.135 299.441 L 219.415 299.441 Q 219.415 309.311 213.36 314.561 Q 207.305 319.811 196.245 319.811 Q 183.925 319.811 177.59 313.511 Q 171.255 307.211 171.255 294.891 Q 171.255 282.571 177.59 276.271 Q 183.925 269.971 196.245 269.971 Z" style="text-transform: capitalize; white-space: pre;"/>
  <path d="M 251.679 269.971 Q 264.139 269.971 270.929 276.341 Q 277.719 282.711 277.719 294.891 Q 277.719 307.071 270.929 313.441 Q 264.139 319.811 251.679 319.811 Q 239.219 319.811 232.464 313.476 Q 225.709 307.141 225.709 294.891 Q 225.709 282.641 232.464 276.306 Q 239.219 269.971 251.679 269.971 Z M 251.679 281.521 Q 246.709 281.521 244.119 284.531 Q 241.529 287.541 241.529 292.651 L 241.529 297.131 Q 241.529 302.241 244.119 305.251 Q 246.709 308.261 251.679 308.261 Q 256.649 308.261 259.274 305.251 Q 261.899 302.241 261.899 297.131 L 261.899 292.651 Q 261.899 287.541 259.274 284.531 Q 256.649 281.521 251.679 281.521 Z" style="text-transform: capitalize; white-space: pre;"/>
  <path d="M 306.893 270.811 Q 332.163 270.811 332.163 294.891 Q 332.163 318.971 306.893 318.971 L 286.033 318.971 L 286.033 270.811 L 306.893 270.811 Z M 301.503 307.421 L 306.613 307.421 Q 316.343 307.421 316.343 296.991 L 316.343 292.791 Q 316.343 282.361 306.613 282.361 L 301.503 282.361 Z" style="text-transform: capitalize; white-space: pre;"/>
  <path d="M 386.196 285.581 Q 386.196 289.991 383.816 293.561 Q 381.436 297.131 376.886 298.811 L 387.596 318.971 L 370.236 318.971 L 361.696 301.401 L 355.956 301.401 L 355.956 318.971 L 340.486 318.971 L 340.486 270.811 L 369.956 270.811 Q 375.136 270.811 378.811 272.806 Q 382.486 274.801 384.341 278.196 Q 386.196 281.591 386.196 285.581 Z M 370.446 286.211 Q 370.446 284.321 369.186 283.061 Q 367.926 281.801 366.106 281.801 L 355.956 281.801 L 355.956 290.691 L 366.106 290.691 Q 367.926 290.691 369.186 289.396 Q 370.446 288.101 370.446 286.211 Z" style="text-transform: capitalize; white-space: pre;"/>
  <path d="M 417.695 269.971 Q 430.155 269.971 436.945 276.341 Q 443.735 282.711 443.735 294.891 Q 443.735 307.071 436.945 313.441 Q 430.155 319.811 417.695 319.811 Q 405.235 319.811 398.48 313.476 Q 391.725 307.141 391.725 294.891 Q 391.725 282.641 398.48 276.306 Q 405.235 269.971 417.695 269.971 Z M 417.695 281.521 Q 412.725 281.521 410.135 284.531 Q 407.545 287.541 407.545 292.651 L 407.545 297.131 Q 407.545 302.241 410.135 305.251 Q 412.725 308.261 417.695 308.261 Q 422.665 308.261 425.29 305.251 Q 427.915 302.241 427.915 297.131 L 427.915 292.651 Q 427.915 287.541 425.29 284.531 Q 422.665 281.521 417.695 281.521 Z" style="text-transform: capitalize; white-space: pre;"/>
  <path d="M 486.502 318.971 L 466.272 295.591 L 466.272 318.971 L 452.062 318.971 L 452.062 270.811 L 465.572 270.811 L 485.802 294.541 L 485.802 270.811 L 500.012 270.811 L 500.012 318.971 Z" style="text-transform: capitalize; white-space: pre;"/>
  <path d="M 510.357 270.811 L 552.007 270.811 L 552.007 282.361 L 525.827 282.361 L 525.827 289.011 L 548.227 289.011 L 548.227 300.071 L 525.827 300.071 L 525.827 307.421 L 552.497 307.421 L 552.497 318.971 L 510.357 318.971 Z" style="text-transform: capitalize; white-space: pre;"/>
</svg>