<?xml version="1.0" encoding="utf-8"?>
<svg viewBox="42.443 79.229 1203.855 321.028" xmlns="http://www.w3.org/2000/svg">
  <g transform="matrix(0.077516, 0, 0, -0.077516, 35.089154, 334.823034)" fill="#000000" stroke="none">
    <path d="M278 2263 c43 -60 120 -165 170 -234 50 -70 98 -131 105 -138 13 -10 151 -59 712 -251 170 -58 870 -300 1039 -359 49 -17 92 -31 96 -31 4 0 12 23 18 51 17 74 67 187 122 279 31 52 44 83 37 85 -7 3 -248 75 -537 160 -1079 320 -1697 504 -1760 524 -36 12 -68 21 -73 21 -4 0 28 -48 71 -107z"/>
    <path d="M6629 2366 c-4 -5 -466 -143 -1779 -532 -305 -90 -561 -166 -568 -169 -10 -4 -5 -16 16 -47 67 -100 131 -244 147 -330 4 -21 11 -38 15 -38 4 0 33 9 66 21 32 11 194 67 359 124 165 57 419 144 565 195 146 51 276 96 290 100 216 70 559 195 572 208 9 9 87 114 173 232 87 118 162 221 167 228 8 8 6 12 -4 12 -8 0 -17 -2 -19 -4z"/>
    <path d="M3241 1955 c-414 -93 -708 -420 -750 -832 -46 -447 226 -861 655 -996 443 -140 926 65 1129 478 260 533 -14 1161 -582 1331 -74 22 -111 27 -238 30 -106 3 -169 -1 -214 -11z m385 -263 c117 -37 203 -90 294 -181 88 -88 139 -172 176 -286 25 -80 30 -257 10 -349 -55 -246 -244 -443 -494 -517 -95 -29 -270 -28 -367 0 -246 73 -422 255 -486 502 -18 71 -21 101 -16 199 10 199 75 341 219 476 93 86 200 139 363 178 46 11 242 -3 301 -22z"/>
    <path d="M3352 1511 c-23 -6 -23 -7 16 -38 46 -37 89 -117 98 -183 5 -38 -4 -96 -22 -143 -3 -8 13 -12 54 -12 193 0 252 -251 80 -341 -35 -18 -121 -18 -157 0 -70 37 -110 116 -98 192 3 19 4 34 3 34 -2 0 -23 -7 -46 -15 -99 -35 -211 -5 -283 75 -42 46 -45 48 -51 27 -11 -41 -6 -139 10 -201 24 -92 70 -170 139 -234 98 -92 200 -132 335 -132 141 0 241 41 342 141 243 239 178 633 -129 788 -82 41 -223 62 -291 42z"/>
    <path d="M809 1654 c17 -27 84 -132 150 -234 l119 -184 667 -223 c473 -157 665 -217 661 -206 -24 62 -32 244 -16 357 6 38 9 71 7 73 -2 2 -242 71 -533 154 -681 193 -1056 300 -1072 307 -8 2 0 -17 17 -44z"/>
    <path d="M5815 1625 c-137 -40 -497 -143 -799 -229 -302 -85 -551 -157 -553 -159 -2 -2 1 -35 7 -73 16 -113 8 -295 -16 -357 -4 -11 188 49 661 206 l666 222 120 185 c156 240 180 280 171 279 -4 -1 -119 -34 -257 -74z"/>
    <path d="M1514 863 l125 -188 103 -33 c57 -18 157 -50 223 -72 66 -21 235 -75 375 -121 140 -45 261 -84 268 -87 8 -3 -5 19 -27 49 -50 65 -122 210 -151 300 l-21 67 -112 30 c-205 56 -671 180 -772 207 -55 14 -108 28 -118 31 -11 4 30 -66 107 -183z"/>
    <path d="M5390 1030 c-36 -10 -220 -59 -410 -110 -190 -51 -386 -104 -437 -117 l-92 -25 -26 -81 c-32 -97 -67 -169 -129 -261 -26 -38 -45 -70 -44 -71 2 -1 172 53 378 119 206 67 424 137 483 156 l108 35 124 188 c69 103 121 187 117 186 -4 0 -36 -9 -72 -19z"/>
  </g>
  <path d="M 588.559 226.705 Q 588.559 233.005 585.159 238.105 Q 581.759 243.205 575.259 245.605 L 590.559 274.405 L 565.759 274.405 L 553.559 249.305 L 545.359 249.305 L 545.359 274.405 L 523.259 274.405 L 523.259 205.605 L 565.359 205.605 Q 572.759 205.605 578.009 208.455 Q 583.259 211.305 585.909 216.155 Q 588.559 221.005 588.559 226.705 Z M 566.059 227.605 Q 566.059 224.905 564.259 223.105 Q 562.459 221.305 559.859 221.305 L 545.359 221.305 L 545.359 234.005 L 559.859 234.005 Q 562.459 234.005 564.259 232.155 Q 566.059 230.305 566.059 227.605 Z" style="text-transform: capitalize; white-space: pre;"/>
  <path d="M 601.049 205.605 L 660.549 205.605 L 660.549 222.105 L 623.149 222.105 L 623.149 231.605 L 655.149 231.605 L 655.149 247.405 L 623.149 247.405 L 623.149 257.905 L 661.249 257.905 L 661.249 274.405 L 601.049 274.405 Z" style="text-transform: capitalize; white-space: pre;"/>
  <path d="M 706.052 204.405 Q 721.352 204.405 730.252 212.055 Q 739.152 219.705 739.152 233.905 L 718.052 233.905 Q 718.052 227.905 714.902 224.405 Q 711.752 220.905 705.952 220.905 Q 699.252 220.905 696.102 225.105 Q 692.952 229.305 692.952 236.805 L 692.952 243.205 Q 692.952 250.605 696.102 254.855 Q 699.252 259.105 705.752 259.105 Q 712.152 259.105 715.452 255.805 Q 718.752 252.505 718.752 246.505 L 739.152 246.505 Q 739.152 260.605 730.502 268.105 Q 721.852 275.605 706.052 275.605 Q 688.452 275.605 679.402 266.605 Q 670.352 257.605 670.352 240.005 Q 670.352 222.405 679.402 213.405 Q 688.452 204.405 706.052 204.405 Z" style="text-transform: capitalize; white-space: pre;"/>
  <path d="M 785.242 204.405 Q 803.042 204.405 812.742 213.505 Q 822.442 222.605 822.442 240.005 Q 822.442 257.405 812.742 266.505 Q 803.042 275.605 785.242 275.605 Q 767.442 275.605 757.792 266.555 Q 748.142 257.505 748.142 240.005 Q 748.142 222.505 757.792 213.455 Q 767.442 204.405 785.242 204.405 Z M 785.242 220.905 Q 778.142 220.905 774.442 225.205 Q 770.742 229.505 770.742 236.805 L 770.742 243.205 Q 770.742 250.505 774.442 254.805 Q 778.142 259.105 785.242 259.105 Q 792.342 259.105 796.092 254.805 Q 799.842 250.505 799.842 243.205 L 799.842 236.805 Q 799.842 229.505 796.092 225.205 Q 792.342 220.905 785.242 220.905 Z" style="text-transform: capitalize; white-space: pre;"/>
  <path d="M 864.139 205.605 Q 900.239 205.605 900.239 240.005 Q 900.239 274.405 864.139 274.405 L 834.339 274.405 L 834.339 205.605 L 864.139 205.605 Z M 856.439 257.905 L 863.739 257.905 Q 877.639 257.905 877.639 243.005 L 877.639 237.005 Q 877.639 222.105 863.739 222.105 L 856.439 222.105 Z" style="text-transform: capitalize; white-space: pre;"/>
  <path d="M 977.442 226.705 Q 977.442 233.005 974.042 238.105 Q 970.642 243.205 964.142 245.605 L 979.442 274.405 L 954.642 274.405 L 942.442 249.305 L 934.242 249.305 L 934.242 274.405 L 912.142 274.405 L 912.142 205.605 L 954.242 205.605 Q 961.642 205.605 966.892 208.455 Q 972.142 211.305 974.792 216.155 Q 977.442 221.005 977.442 226.705 Z M 954.942 227.605 Q 954.942 224.905 953.142 223.105 Q 951.342 221.305 948.742 221.305 L 934.242 221.305 L 934.242 234.005 L 948.742 234.005 Q 951.342 234.005 953.142 232.155 Q 954.942 230.305 954.942 227.605 Z" style="text-transform: capitalize; white-space: pre;"/>
  <path d="M 1022.438 204.405 Q 1040.238 204.405 1049.938 213.505 Q 1059.638 222.605 1059.638 240.005 Q 1059.638 257.405 1049.938 266.505 Q 1040.238 275.605 1022.438 275.605 Q 1004.638 275.605 994.988 266.555 Q 985.338 257.505 985.338 240.005 Q 985.338 222.505 994.988 213.455 Q 1004.638 204.405 1022.438 204.405 Z M 1022.438 220.905 Q 1015.338 220.905 1011.638 225.205 Q 1007.938 229.505 1007.938 236.805 L 1007.938 243.205 Q 1007.938 250.505 1011.638 254.805 Q 1015.338 259.105 1022.438 259.105 Q 1029.538 259.105 1033.288 254.805 Q 1037.038 250.505 1037.038 243.205 L 1037.038 236.805 Q 1037.038 229.505 1033.288 225.205 Q 1029.538 220.905 1022.438 220.905 Z" style="text-transform: capitalize; white-space: pre;"/>
  <path d="M 1120.723 274.405 L 1091.823 241.005 L 1091.823 274.405 L 1071.523 274.405 L 1071.523 205.605 L 1090.823 205.605 L 1119.723 239.505 L 1119.723 205.605 L 1140.023 205.605 L 1140.023 274.405 Z" style="text-transform: capitalize; white-space: pre;"/>
  <path d="M 1154.82 205.605 L 1214.32 205.605 L 1214.32 222.105 L 1176.92 222.105 L 1176.92 231.605 L 1208.92 231.605 L 1208.92 247.405 L 1176.92 247.405 L 1176.92 257.905 L 1215.02 257.905 L 1215.02 274.405 L 1154.82 274.405 Z" style="text-transform: capitalize; white-space: pre;"/>
</svg>