<?xml version="1.0" standalone="no"?>
<!DOCTYPE svg PUBLIC "-//W3C//DTD SVG 20010904//EN"
 "http://www.w3.org/TR/2001/REC-SVG-20010904/DTD/svg10.dtd">
<svg version="1.0" xmlns="http://www.w3.org/2000/svg"
 width="680.000000pt" height="283.000000pt" viewBox="0 0 680.000000 283.000000"
 preserveAspectRatio="xMidYMid meet">

<g transform="translate(0.000000,283.000000) scale(0.100000,-0.100000)"
fill="#000000" stroke="none">
<path d="M278 2263 c43 -60 120 -165 170 -234 50 -70 98 -131 105 -138 13 -10
151 -59 712 -251 170 -58 870 -300 1039 -359 49 -17 92 -31 96 -31 4 0 12 23
18 51 17 74 67 187 122 279 31 52 44 83 37 85 -7 3 -248 75 -537 160 -1079
320 -1697 504 -1760 524 -36 12 -68 21 -73 21 -4 0 28 -48 71 -107z"/>
<path d="M6629 2366 c-4 -5 -466 -143 -1779 -532 -305 -90 -561 -166 -568
-169 -10 -4 -5 -16 16 -47 67 -100 131 -244 147 -330 4 -21 11 -38 15 -38 4 0
33 9 66 21 32 11 194 67 359 124 165 57 419 144 565 195 146 51 276 96 290
100 216 70 559 195 572 208 9 9 87 114 173 232 87 118 162 221 167 228 8 8 6
12 -4 12 -8 0 -17 -2 -19 -4z"/>
<path d="M3241 1955 c-414 -93 -708 -420 -750 -832 -46 -447 226 -861 655
-996 443 -140 926 65 1129 478 260 533 -14 1161 -582 1331 -74 22 -111 27
-238 30 -106 3 -169 -1 -214 -11z m385 -263 c117 -37 203 -90 294 -181 88 -88
139 -172 176 -286 25 -80 30 -257 10 -349 -55 -246 -244 -443 -494 -517 -95
-29 -270 -28 -367 0 -246 73 -422 255 -486 502 -18 71 -21 101 -16 199 10 199
75 341 219 476 93 86 200 139 363 178 46 11 242 -3 301 -22z"/>
<path d="M3352 1511 c-23 -6 -23 -7 16 -38 46 -37 89 -117 98 -183 5 -38 -4
-96 -22 -143 -3 -8 13 -12 54 -12 193 0 252 -251 80 -341 -35 -18 -121 -18
-157 0 -70 37 -110 116 -98 192 3 19 4 34 3 34 -2 0 -23 -7 -46 -15 -99 -35
-211 -5 -283 75 -42 46 -45 48 -51 27 -11 -41 -6 -139 10 -201 24 -92 70 -170
139 -234 98 -92 200 -132 335 -132 141 0 241 41 342 141 243 239 178 633 -129
788 -82 41 -223 62 -291 42z"/>
<path d="M809 1654 c17 -27 84 -132 150 -234 l119 -184 667 -223 c473 -157
665 -217 661 -206 -24 62 -32 244 -16 357 6 38 9 71 7 73 -2 2 -242 71 -533
154 -681 193 -1056 300 -1072 307 -8 2 0 -17 17 -44z"/>
<path d="M5815 1625 c-137 -40 -497 -143 -799 -229 -302 -85 -551 -157 -553
-159 -2 -2 1 -35 7 -73 16 -113 8 -295 -16 -357 -4 -11 188 49 661 206 l666
222 120 185 c156 240 180 280 171 279 -4 -1 -119 -34 -257 -74z"/>
<path d="M1514 863 l125 -188 103 -33 c57 -18 157 -50 223 -72 66 -21 235 -75
375 -121 140 -45 261 -84 268 -87 8 -3 -5 19 -27 49 -50 65 -122 210 -151 300
l-21 67 -112 30 c-205 56 -671 180 -772 207 -55 14 -108 28 -118 31 -11 4 30
-66 107 -183z"/>
<path d="M5390 1030 c-36 -10 -220 -59 -410 -110 -190 -51 -386 -104 -437
-117 l-92 -25 -26 -81 c-32 -97 -67 -169 -129 -261 -26 -38 -45 -70 -44 -71 2
-1 172 53 378 119 206 67 424 137 483 156 l108 35 124 188 c69 103 121 187
117 186 -4 0 -36 -9 -72 -19z"/>
</g>
</svg>
